HIERARCHY
ROOT Hips
{
  OFFSET 0 0 0
  CHANNELS 6 Xposition Yposition Zposition Zrotation Yrotation Xrotation
  JOINT LeftThigh
  {
    OFFSET 8.409438 0 -5.917753
    CHANNELS 3 Zrotation Yrotation Xrotation
    JOINT LeftLeg
    {
      OFFSET 0 0 -42.358652
      CHANNELS 3 Zrotation Yrotation Xrotation
      JOINT LeftFoot
      {
        OFFSET 0 0 -39.357303
        CHANNELS 3 Zrotation Yrotation Xrotation
      }
    }
  }
  JOINT RightThigh
  {
    OFFSET -8.409438 0 -5.917753
    CHANNELS 3 Zrotation Yrotation Xrotation
    JOINT RightLeg
    {
      OFFSET 0 0 -42.358652
      CHANNELS 3 Zrotation Yrotation Xrotation
      JOINT RightFoot
      {
        OFFSET 0 0 -39.357303
        CHANNELS 3 Zrotation Yrotation Xrotation
      }
    }
  }
  JOINT SpineLow
  {
    OFFSET 0 0 4.719101
    CHANNELS 3 Zrotation Yrotation Xrotation
    JOINT SpineMid
    {
      OFFSET 0 0 12.899191
      CHANNELS 3 Zrotation Yrotation Xrotation
      JOINT Chest
      {
        OFFSET 0 0 12.899191
        CHANNELS 3 Zrotation Yrotation Xrotation
        JOINT LeftShoulder
        {
          OFFSET 7.550562 1.41573 9.438202
          CHANNELS 3 Zrotation Yrotation Xrotation
          JOINT LeftArm
          {
            OFFSET 9.155056 0 4.247191
            CHANNELS 3 Zrotation Yrotation Xrotation
            JOINT LeftForearm
            {
              OFFSET 0 0 25.771955
              CHANNELS 3 Zrotation Yrotation Xrotation
              JOINT LeftHand
              {
                OFFSET 0 0 25.197169
                CHANNELS 3 Zrotation Yrotation Xrotation
              }
            }
          }
        }
        JOINT RightShoulder
        {
          OFFSET -7.550562 1.41573 9.438202
          CHANNELS 3 Zrotation Yrotation Xrotation
          JOINT RightArm
          {
            OFFSET -9.155056 0 4.247191
            CHANNELS 3 Zrotation Yrotation Xrotation
            JOINT RightForearm
            {
              OFFSET 0 0 -25.771955
              CHANNELS 3 Zrotation Yrotation Xrotation
              JOINT RightHand
              {
                OFFSET 0 0 -25.197169
                CHANNELS 3 Zrotation Yrotation Xrotation
              }
            }
          }
        }
        JOINT Neck
        {
          OFFSET 0 0 15.101124
          CHANNELS 3 Zrotation Yrotation Xrotation
          JOINT Head
          {
            OFFSET 0 0 11.325843
            CHANNELS 3 Zrotation Yrotation Xrotation
            End Site
            {
              OFFSET 0 0 14.157303
            }
          }
        }
      }
    }
  }
}
MOTION
Frames: 17
Frame Time: 0.0
0.0  89.887642  0.0  14.7681  -21.219081  -113.220331  34.963478  2.077955  -59.842304  -8.244846  16.113082  87.60547  2.565669  -0.004267  0.762467  -10.696063  9.764103  4.724977  11.947553  1.651855  19.514805  5.984191  3.310717  2.968313  3.340931  0.230618  3.560524  9.143274  0.13698  9.742827  9.143274  0.13698  9.742827  -17.274982  20.960562  4.335246  -170.206233  55.995373  -148.740701  -23.43317  -35.636372  58.733552  81.089799  14.314309  49.141089  0.848134  0.775618  12.20964  74.233571  34.977344  12.099929  -37.573519  24.584128  -55.989072  94.181398  40.674838  -92.474345  -13.919488  1.207921  -1.802949  -10.435777  0.947608  -1.325454  
0.0  89.887642  0.0  14.351803  -21.04713  -112.635329  34.925157  1.507091  -59.21628  -7.442764  15.800461  87.589167  2.385965  0.113287  0.576765  -11.425841  9.294431  4.138674  12.335724  1.642963  19.507996  5.938207  3.341878  2.950924  3.359156  0.230151  3.537102  9.192976  0.136282  9.678821  9.192976  0.136282  9.678821  -17.089154  20.792584  4.333718  -168.956841  55.926233  -147.779212  -23.100674  -36.442646  59.488193  81.745148  14.004681  50.545367  0.500202  0.695448  12.132336  74.358545  34.898673  11.959072  -38.203444  24.437041  -56.834322  94.295813  39.509275  -91.994351  -14.0459  1.088098  -1.988901  -10.530703  0.862347  -1.467534  
0.0  89.887642  0.0  13.936387  -20.793646  -112.026645  34.872035  1.168671  -58.546679  -6.90957  15.68101  87.469025  2.409187  0.283757  0.482501  -11.846143  8.87253  3.734296  12.326387  1.677583  19.378044  5.854313  3.381571  2.944785  3.385685  0.233529  3.506172  9.265905  0.145922  9.594853  9.265905  0.145922  9.594853  -16.995839  20.589665  4.408155  -167.720286  55.850918  -146.810305  -22.87803  -37.259065  60.358031  82.366784  13.827464  51.485511  0.545138  0.632739  12.243616  74.001076  34.945464  11.581495  -39.036034  24.283308  -57.640436  94.347191  38.424004  -91.655178  -14.344229  0.928979  -2.156624  -10.75482  0.747867  -1.596664  
0.0  89.887642  0.0  13.563568  -20.603349  -111.487888  34.952192  1.004551  -57.761553  -6.574967  15.366505  87.422819  2.430766  0.456623  0.404496  -12.146161  8.355255  3.449316  12.265004  1.831226  19.209504  5.796883  3.388936  2.922304  3.481592  0.236786  3.513804  9.527869  0.139778  9.615815  9.527869  0.139778  9.615815  -17.036374  20.290979  4.440395  -166.71775  55.668088  -145.807807  -22.818105  -38.059375  61.4061  83.099076  13.835082  52.017839  -0.21756  0.441333  11.953191  74.064189  34.899468  11.432793  -39.651624  24.137642  -58.622594  94.259389  37.09165  -91.37609  -14.773265  0.73655  -2.408484  -11.077101  0.611086  -1.789768  
0.0  89.887642  0.0  13.122565  -20.273691  -110.863282  34.907539  0.959174  -56.911172  -6.376611  14.955379  87.346309  2.394017  0.62342  0.30224  -12.4781  7.81044  3.115205  12.125265  1.977101  19.023806  5.754197  3.423522  2.904945  3.545129  0.24763  3.4951  9.702758  0.162782  9.566187  9.702758  0.162782  9.566188  -17.094204  19.87752  4.493139  -165.8781  55.422422  -144.991106  -23.052278  -38.753391  62.527926  83.889676  14.130505  52.208993  -0.323591  0.258805  11.945241  73.685288  34.964393  11.107871  -40.504071  23.985711  -59.575152  94.132251  35.518526  -91.227278  -15.247156  0.505818  -2.610466  -11.433382  0.444851  -1.946651  
0.0  89.887642  0.0  12.64468  -19.917162  -110.229921  34.833801  0.942044  -55.871434  -6.3116  14.418343  87.167454  2.324872  0.820491  0.200519  -12.56355  7.163127  3.000554  11.956676  2.20533  18.796287  5.655988  3.433813  2.843707  3.624348  0.236716  3.478193  9.917256  0.124177  9.518193  9.917256  0.124177  9.518193  -17.127537  19.503173  4.556272  -165.328505  55.049676  -144.394723  -23.750213  -39.195634  64.138504  84.825242  14.82989  52.141279  -0.672504  0.041536  11.869302  72.597424  35.341729  10.405924  -41.266195  23.577788  -60.370212  94.013609  34.12253  -91.877926  -15.744046  0.342909  -2.806414  -11.806724  0.329775  -2.09762  
0.0  89.887642  0.0  12.12155  -19.43141  -109.574625  34.55109  0.747538  -54.672128  -6.114992  13.827263  86.926732  2.21979  1.033887  0.089453  -12.67936  6.570973  2.77423  11.399903  2.305406  18.514046  5.544245  3.478707  2.817459  3.689129  0.237093  3.456562  10.094044  0.119185  9.459027  10.094044  0.119185  9.459027  -17.273885  19.025024  4.547978  -164.998132  54.789577  -144.044493  -24.865447  -39.266491  65.939713  85.821933  15.799442  51.750506  -0.806146  -0.249519  11.815229  72.205966  35.460854  10.119569  -42.215399  22.820781  -61.225324  94.176468  32.078461  -92.0047  -16.312195  0.111423  -2.982553  -12.233947  0.163351  -2.235829  
0.0  89.887642  0.0  11.544026  -18.960421  -108.988301  34.087984  -0.06606  -53.594122  -5.354001  13.367526  86.947606  2.147386  1.251523  -0.019969  -12.546184  5.969497  2.783829  10.854371  2.486203  18.210411  5.186298  3.397516  2.61285  3.781198  0.201358  3.447334  10.340054  0.010292  9.427906  10.340054  0.010292  9.427906  -17.510953  18.66799  4.502619  -164.751559  54.396076  -143.821678  -26.099514  -39.037065  68.148757  86.784972  16.984965  51.027913  -1.201393  -0.483537  11.756924  71.33227  35.814828  9.59555  -42.940495  21.717259  -62.043062  94.380474  29.98031  -92.807827  -16.799053  -0.007285  -3.14538  -12.599725  0.08111  -2.361353  
0.0  89.887642  0.0  10.973855  -18.265458  -108.246633  33.318872  -0.86903  -52.582389  -4.404818  12.857489  87.068779  2.131568  1.469144  -0.146831  -12.754859  5.401704  2.555063  10.159551  2.618371  17.816243  5.151207  3.367787  2.586441  3.844464  0.178545  3.398046  10.509665  -0.052928  9.289583  10.509665  -0.052928  9.289583  -17.918312  18.303222  4.415712  -164.86392  54.187098  -143.786362  -27.335483  -38.694752  70.083535  87.465395  18.246215  49.939193  -1.500137  -0.667322  11.8643  70.742837  36.09557  9.191243  -43.768227  20.425521  -62.971782  94.720377  27.375433  -93.655852  -17.491335  -0.190625  -3.295318  -13.119973  -0.048658  -2.479355  
0.0  89.887642  0.0  10.365597  -17.630682  -107.602018  32.534336  -1.890743  -51.296395  -3.344483  12.284864  87.066757  2.151498  1.688698  -0.259602  -13.08318  4.761044  2.356333  9.45264  2.703855  17.314014  5.14496  3.357105  2.59853  3.964896  0.121529  3.370922  10.830387  -0.220405  9.205534  10.830387  -0.220405  9.205534  -18.389632  18.018691  4.334599  -165.415401  53.944985  -143.669785  -28.295655  -38.458177  71.834659  87.820612  19.306723  48.587612  -2.184515  -0.813116  11.937323  69.761279  36.544053  8.553507  -44.670855  18.922358  -63.884837  95.146882  24.703545  -95.205337  -18.266115  -0.318959  -3.456335  -13.701877  -0.136009  -2.604545  
0.0  89.887642  0.0  9.74272  -16.821921  -106.832412  31.53747  -2.899558  -49.984044  -2.224182  11.714239  87.023166  2.153216  1.947584  -0.35821  -13.316641  4.116442  2.120736  8.904193  2.77143  16.924307  5.028961  3.369712  2.58564  4.043522  0.072934  3.297712  11.038948  -0.35125  8.99725  11.038948  -0.35125  8.997251  -18.84778  17.706368  4.301367  -166.167748  53.793139  -143.848893  -29.118286  -38.27449  73.455976  87.874334  20.036409  47.162589  -2.67168  -0.877118  12.202468  68.859517  36.892607  7.83939  -45.23158  17.310935  -64.793374  95.674771  21.71391  -96.395951  -19.10735  -0.485179  -3.543322  -14.333812  -0.253343  -2.675759  
0.0  89.887642  0.0  9.151544  -16.060809  -106.145664  30.549507  -3.901153  -48.522285  -1.09148  11.138176  86.960471  2.189856  2.193309  -0.439603  -13.594778  3.469558  1.844341  8.481181  2.850978  16.626864  4.924034  3.367291  2.570188  4.174859  0.01045  3.262458  11.389292  -0.532867  8.889032  11.389291  -0.532867  8.889032  -19.349082  17.422901  4.201796  -167.518361  53.671383  -143.796276  -29.585217  -38.415472  74.645793  87.722086  20.461972  45.695874  -3.437318  -0.937619  12.285923  67.386674  37.334218  6.77822  -45.542635  15.64643  -65.641496  96.228293  18.763265  -97.920699  -19.994447  -0.640181  -3.696768  -15.000202  -0.359587  -2.797061  
0.0  89.887642  0.0  8.510513  -15.182178  -105.378051  29.409691  -4.796202  -46.998979  0.003579  10.580618  86.828385  2.30699  2.415392  -0.493915  -13.729454  2.720439  1.630304  7.709599  2.961545  16.228887  4.830589  3.393942  2.560992  4.241028  -0.054759  3.19053  11.562382  -0.706453  8.680883  11.562382  -0.706453  8.680883  -19.588494  17.141843  4.196179  -168.956601  53.50373  -144.072871  -30.069372  -38.497375  75.987114  87.290634  20.605929  44.28385  -3.854528  -0.936994  12.472467  66.111886  37.640605  5.84763  -45.740414  14.050825  -66.562845  96.650815  15.619012  -99.253288  -20.863179  -0.796274  -3.834521  -15.652858  -0.466882  -2.907071  
0.0  89.887642  0.0  7.893282  -14.239911  -104.637629  28.136406  -5.627436  -45.313416  1.108807  9.958037  86.651997  2.421583  2.637957  -0.534456  -13.92052  2.19269  1.388097  7.720783  3.027662  16.197359  4.078313  3.173497  2.199919  4.32954  -0.122124  3.145142  11.7961  -0.893061  8.54391  11.7961  -0.893061  8.54391  -19.996225  16.802498  4.054844  -170.782445  53.275876  -144.257888  -30.418298  -38.706286  77.066821  86.677855  20.651919  42.96617  -4.508315  -0.984478  12.457263  64.025038  38.125149  4.457195  -45.355746  12.320234  -67.408574  97.069454  12.482076  -100.707629  -21.770494  -0.963207  -4.048818  -16.334714  -0.578972  -3.075517  
0.0  89.887642  0.0  7.313209  -13.245885  -103.900888  26.694372  -6.456754  -43.501834  2.301985  9.261313  86.461546  2.458602  2.867477  -0.584767  -14.276497  1.689593  1.152836  6.981438  2.978939  15.752761  4.046163  3.125152  2.179807  4.393613  -0.186895  3.096942  11.963852  -1.068662  8.399845  11.963851  -1.068662  8.399845  -20.323601  16.522625  3.854004  -172.610646  53.132027  -144.706752  -30.874394  -38.553411  78.295594  85.853123  20.598108  41.742924  -4.916834  -0.980613  12.430973  62.582309  38.441705  3.477983  -45.362402  10.762891  -68.282989  97.249471  9.271846  -101.908792  -22.691439  -1.11193  -4.298553  -17.02686  -0.675363  -3.270492  
0.0  89.887642  0.0  6.819972  -12.391516  -103.317392  25.282423  -7.328683  -41.433372  3.537927  8.561825  86.230774  2.403948  3.13649  -0.631575  -14.461241  1.325797  1.047559  6.112432  2.820637  15.130391  4.132615  3.082616  2.261016  4.4869  -0.24164  3.085938  12.211951  -1.227188  8.357863  12.211952  -1.227188  8.357864  -20.639578  16.2413  3.542759  -174.760875  53.049975  -145.130444  -31.301186  -38.272767  79.251221  84.885176  20.488012  40.587635  -5.640751  -1.073826  12.211165  60.611099  39.016242  2.105893  -44.727507  8.991332  -69.002372  97.404106  6.087165  -103.116317  -23.515384  -1.268307  -4.57427  -17.646476  -0.776491  -3.485544  
0.0  89.887642  0.0  6.312212  -11.446507  -102.776661  23.762791  -8.1667  -39.181545  4.707964  7.921229  85.906586  2.22855  3.421827  -0.69075  -14.720237  0.958478  0.952483  5.57767  2.57746  14.669519  3.969665  3.043789  2.265854  4.566226  -0.317926  3.059313  12.419899  -1.439466  8.269349  12.419898  -1.439466  8.269349  -20.970384  16.084044  3.397851  -176.695889  52.996416  -145.550622  -31.77067  -37.577147  80.260023  83.68251  20.33222  39.47556  -5.991244  -1.030936  12.231773  59.187809  39.495128  1.088585  -44.725807  7.44863  -69.7576  97.35033  2.865819  -104.117574  -24.441546  -1.342812  -4.828528  -18.34228  -0.815433  -3.681991  
